<svg width="1600" height="1626" viewBox="0 0 1600 1626" fill="none" xmlns="http://www.w3.org/2000/svg">
  <g filter="url(#filter0_di_17_24)">
    <path fill-rule="evenodd" clip-rule="evenodd" d="M838.723 63.4885C826.429 57.9271 812.965 55 799.5 55C786.036 55 772.571 57.9271 760.57 63.4885L209.108 297.362C144.713 324.584 96.7086 388.101 97.0013 464.791C98.4649 755.157 217.89 1286.42 722.225 1527.91C771.107 1551.32 827.893 1551.32 876.775 1527.91C1381.11 1286.42 1500.54 755.157 1502 464.791C1502.29 388.101 1454.29 324.584 1389.89 297.362L838.723 63.4885ZM1080.5 716.52C1080.5 823.212 994.003 909.707 887.311 909.707C866.785 909.707 846.917 906.524 828.367 900.596L791.815 937.148C786.876 942.088 780.18 944.832 773.155 944.832H729.249V988.738C729.249 1003.34 717.504 1015.08 702.905 1015.08H658.999V1058.99C658.999 1073.59 647.254 1085.33 632.655 1085.33H544.843C530.244 1085.33 518.499 1073.59 518.499 1058.99V971.175C518.499 964.15 521.243 957.455 526.183 952.515L703.234 775.464C697.307 756.913 694.124 737.046 694.124 716.52C694.124 609.828 780.619 523.332 887.311 523.332C994.003 523.332 1080.5 609.828 1080.5 716.52ZM962.264 641.567C954.03 633.333 942.862 628.707 931.217 628.707C919.573 628.707 908.405 633.333 900.171 641.567C891.937 649.801 887.311 660.969 887.311 672.613C887.311 684.258 891.937 695.426 900.171 703.66C908.405 711.894 919.573 716.52 931.217 716.52C942.862 716.52 954.03 711.894 962.264 703.66C970.498 695.426 975.123 684.258 975.123 672.613C975.123 660.969 970.498 649.801 962.264 641.567Z" fill="#096DD9"/>
  </g>
  <defs>
    <filter id="filter0_di_17_24" x="72" y="25" width="1520" height="1600.47" filterUnits="userSpaceOnUse" color-interpolation-filters="sRGB">
      <feFlood flood-opacity="0" result="BackgroundImageFix"/>
      <feColorMatrix in="SourceAlpha" type="matrix" values="0 0 0 0 0 0 0 0 0 0 0 0 0 0 0 0 0 0 127 0" result="hardAlpha"/>
      <feOffset dx="35" dy="25"/>
      <feGaussianBlur stdDeviation="27.5"/>
      <feComposite in2="hardAlpha" operator="out"/>
      <feColorMatrix type="matrix" values="0 0 0 0 0 0 0 0 0 0 0 0 0 0 0 0 0 0 0.5 0"/>
      <feBlend mode="normal" in2="BackgroundImageFix" result="effect1_dropShadow_17_24"/>
      <feBlend mode="normal" in="SourceGraphic" in2="effect1_dropShadow_17_24" result="shape"/>
      <feColorMatrix in="SourceAlpha" type="matrix" values="0 0 0 0 0 0 0 0 0 0 0 0 0 0 0 0 0 0 127 0" result="hardAlpha"/>
      <feOffset dx="-25" dy="-25"/>
      <feGaussianBlur stdDeviation="27.5"/>
      <feComposite in2="hardAlpha" operator="arithmetic" k2="-1" k3="1"/>
      <feColorMatrix type="matrix" values="0 0 0 0 0 0 0 0 0 0 0 0 0 0 0 0 0 0 0.5 0"/>
      <feBlend mode="normal" in2="shape" result="effect2_innerShadow_17_24"/>
    </filter>
  </defs>
</svg>
